PathFileType	4	(X/Y/Z)	Patient4_TMGait_0pt5_01_left_28.trc.trc
DataRate	CameraRate	NumFrames	NumMarkers	Units	OrigDataRate	OrigDataStartFrame	OrigNumFrames
76.086956521739	76.086956521739	4	33	mm	76.086956521739	71	       141
Frame#	Time	L.ASIS			Sacral			L.Shoulder			Chest			R.Shoulder			Neck			R.ASIS			R.Thigh.Superior			R.Thigh.Lateral			R.Thigh.Inferior			R.Patella			L.Thigh.Superior			L.Thigh.Lateral			L.Thigh.Inferior			L.Patella			L.Shank.Superior			L.Shank.Lateral			L.Shank.Inferior			R.Shank.Superior			R.Shank.Lateral			R.Shank.Inferior			R.Heel			R.Midfoot.Superior			R.Midfoot.Lateral			R.Toe			L.Heel			L.Midfoot.Lateral			L.Midfoot.Superior			L.Toe			L.Elbow			L.Wrist			R.Elbow			R.Wrist			
		X1	Y1	Z1	X2	Y2	Z2	X3	Y3	Z3	X4	Y4	Z4	X5	Y5	Z5	X6	Y6	Z6	X7	Y7	Z7	X8	Y8	Z8	X9	Y9	Z9	X10	Y10	Z10	X11	Y11	Z11	X12	Y12	Z12	X13	Y13	Z13	X14	Y14	Z14	X15	Y15	Z15	X16	Y16	Z16	X17	Y17	Z17	X18	Y18	Z18	X19	Y19	Z19	X20	Y20	Z20	X21	Y21	Z21	X22	Y22	Z22	X23	Y23	Z23	X24	Y24	Z24	X25	Y25	Z25	X26	Y26	Z26	X27	Y27	Z27	X28	Y28	Z28	X29	Y29	Z29	X30	Y30	Z30	X31	Y31	Z31	X32	Y32	Z32	X33	Y33	Z33	

71	38.320000000000	890.638916706167	956.260419001228	297.445544880106	674.566021386897	1000.087557555758	452.335076965700	864.693165133597	1434.675284386874	287.508130966614	958.896999200923	1356.024564380182	450.097730792498	866.454274513818	1426.638812578168	623.639020682933	861.357796396555	1489.218540811796	439.127421740027	897.771297165085	935.600035977257	572.473486106914	971.927792988026	763.508535002342	544.072498919615	928.155513273855	643.588401225913	617.381971018299	1013.964591310740	606.026852719777	534.272378854736	1048.526404486653	521.982767661352	550.899997899407	898.790403444235	727.591927305214	331.112346428767	788.929024046009	630.904530876008	265.646081100626	846.089412431172	539.260213885424	335.163907008568	830.211274223657	470.990832485691	346.212020578769	797.033268632708	403.939536648539	335.495532814880	696.090476450136	302.716043806346	280.615935686196	723.348812573870	186.967784378103	354.944743030125	1029.004362534234	431.687545316308	561.480126422158	973.213023356165	319.438779906237	625.186607357802	1037.766319303398	231.293871280131	571.492099492125	937.411650283516	46.487466755773	542.193993812140	1099.636244432440	118.860030214785	583.672435352255	1020.698349897384	43.673921658790	616.580789496930	1224.053013235202	81.500460482144	613.033562784276	576.142023298240	39.571583489750	388.122518328880	652.660566315339	35.913257937652	310.661425793225	736.125286963192	95.471878673104	340.401503243070	864.462357372513	39.668554755855	314.986847867183	793.019263000100	1105.686153975712	134.358442714875	956.151525686189	901.173386437158	148.165539646228	763.172688578773	1095.424834961519	731.834898083796	789.430761759765	839.366121349482	772.961679242600	
72	38.333142857143	892.434208627247	954.943279398882	299.592247148653	676.032467036827	998.217847590461	454.172396710749	864.234045563430	1433.390167316519	290.144356399342	958.918336772846	1355.050291280008	452.636975427779	866.243327374299	1425.023323347130	626.407216676043	860.853055477978	1487.848838973674	441.858550296965	899.167325326515	933.924766431188	574.563345776572	971.824123359934	759.631096238002	547.104597163120	925.559105847126	640.166107127987	619.351614733489	1011.557437881162	602.255040805302	536.578645662269	1044.627079369911	518.747383713724	552.379482498870	898.702063472512	725.814624564219	332.714761444324	787.717467193955	630.195435836380	266.992636994193	843.896002054789	537.875295019816	336.248744528846	827.388594172803	469.497175298114	347.126372226069	793.489776087130	402.841674951089	336.307394762828	691.461957748532	302.721882725469	281.270068772163	717.623864447977	186.503620587015	355.218770849207	1026.460339333463	428.494051075945	563.021693117960	971.725896524813	315.390622522100	625.932268771616	1037.809321017885	228.312404860288	572.276043479295	939.814745416225	43.328862879804	541.864577911156	1101.177068353240	116.752505593716	584.533051473710	1022.539596571634	41.244896248733	616.804391718584	1225.544051638173	80.120865832365	614.421790830635	569.489005540053	39.576445757473	388.098021962194	646.068029523800	35.900392701651	310.686824081801	729.569132644519	95.412887137415	340.422359128601	857.917345575792	39.592871042238	314.899542773365	793.456608989812	1103.769749653192	137.729328126080	957.452035814046	899.974636096971	152.216882471030	765.627859456322	1092.182811759818	732.749946307541	795.272831088172	835.996527032995	771.511394121146	
73	38.346285714286	894.278040810250	953.618375152256	301.947159853224	677.572754407102	996.336511241173	456.207795681184	863.729703092249	1432.089558411771	292.981124045232	958.987634506274	1354.112384780742	455.350185945414	866.120631700658	1423.408838803005	629.384832760432	860.341704172722	1486.482984127092	444.795031077739	900.725809502388	932.249697826278	576.809460712649	972.449462278959	756.279391672314	550.091359869152	923.824419356914	637.035928318746	621.015624966722	1010.274570314210	599.057554377385	538.769897677420	1041.661832346672	515.581474609590	553.685655569024	898.916207782920	724.110838001609	334.385583684949	786.820319312202	629.455881226395	268.527239674948	842.226068220489	536.471019264057	337.429938920275	825.192482942435	467.860946244327	348.104391924888	790.383964653179	401.656096047426	337.215812513158	687.110873579585	302.814736464870	281.980592559414	712.047678168415	186.061215915001	355.489662869211	1024.257244992681	425.304470037259	564.279591332867	969.675731801541	311.846395217708	626.344044190572	1036.450028402934	225.352160636895	572.720203126525	939.085904990291	41.381267605336	541.222253416771	1100.217675570838	114.277218091273	585.015898278407	1021.173540196932	39.366481702876	616.764801511188	1224.127143584151	77.252035449616	615.489272061318	562.826661168744	39.718002803773	388.007864213957	639.492362719197	35.922368307202	310.673577661104	723.079626522475	95.358028663302	340.394467983839	851.415175655663	39.506432275389	314.786441737561	793.639260122816	1101.802721814617	141.426632847691	958.437081543248	898.640109714614	156.221421138207	768.637254601753	1088.843220167222	733.938147549913	802.168862926532	832.616120720813	770.160166036925	
74	38.359428571429	896.115213441419	952.359740571894	304.493676324905	679.135652291447	994.515155096831	458.430088737271	863.239116742328	1430.827767515735	296.013442695693	959.120306794988	1353.241608639166	458.245503725601	866.102940603069	1421.855882804366	632.564455490105	859.871822558688	1485.178671542109	447.930064478962	902.406509486626	930.656745359837	579.216903772587	973.785880790791	753.560951230128	552.957879991721	922.986483112229	634.304532153482	622.368727953908	1010.098253283969	596.498534072354	540.806327327190	1039.701546547402	512.633712782851	554.786168054712	899.459769111797	722.546615224834	336.109998969280	786.333163946611	628.684620679427	270.261030500010	841.251270668444	535.071213810138	338.714046920549	823.829532885638	466.073350443159	349.134168866374	787.869212541126	400.377676367116	338.227594553791	683.160862295200	303.038533350974	282.756792253108	706.705320184242	185.677921657171	355.756630066947	1022.544493274372	422.260938996527	565.239691513641	967.416042566398	308.854163193845	626.532245490643	1034.089805053224	222.492818637510	572.862987558104	935.806725658737	40.397571542666	540.428433160553	1097.281432334706	111.571231484488	585.140956807187	1017.276262140913	37.970402318441	616.566685948440	1220.471924913329	73.294702298659	616.204195540930	556.179312966309	40.126905424382	387.845007657120	632.948773999258	36.045596049176	310.617253519369	716.707591572952	95.322523950269	340.309021083876	844.957129081644	39.395476651814	314.654635024718	793.621651262844	1099.849991321134	145.423229348438	959.084817224570	897.173176862125	160.163161245521	772.152270246028	1085.501706351867	735.407583969954	810.040231502977	829.350368221710	768.943287203668	
